<svg xmlns="http://www.w3.org/2000/svg" version="1.1" xmlns:xlink="http://www.w3.org/1999/xlink" xmlns:svgjs="http://svgjs.dev/svgjs" width="1500" height="1687" viewBox="0 0 1500 1687"><g transform="matrix(1,0,0,1,0.00011015625000254659,0)"><svg viewBox="0 0 320 360" data-background-color="#ececea" preserveAspectRatio="xMidYMid meet" height="1687" width="1500" xmlns="http://www.w3.org/2000/svg" xmlns:xlink="http://www.w3.org/1999/xlink"><g id="tight-bounds" transform="matrix(1,0,0,1,0.000023499999997511622,0)"><svg viewBox="0 0 320 360" height="360" width="320"><g><svg></svg></g><g><svg viewBox="0 0 320 360" height="360" width="320"><g><path transform="translate(-74.99272,-51.79039) scale(4.65793,4.65793)" d="M20.6 59.9l0.8 1-0.4-1.3c-0.1-0.6-0.8 0.1-0.4 0.3M21.5 59.3c0.3 0.5 0.6 1 0.6 1.5 0 0.7 0.6 1 1.1 1.2-0.7-0.8-1.1-3-1.7-2.7M59.9 16.9c1.7 0 3.3-0.2 5.1 0.2 4.4 1.1 8.1 3.3 10.6 6.4l7 11.2c0.3 2.8 0.9 5.9 0.8 9.3 0.7 0 0.6-1 1.4-1.2-0.8 2-1.2 4.5-1.4 7.4-0.5-1.6 0-4 0.1-5.3-0.7 1.1-1.1 0.3-1.1-0.2 0.1-0.8-0.3-0.7-0.6-1-1.1-1-1.8-2.1-2.6-3.8 0.5-1.3 0.6-3.2-1-4.2-0.5-0.3-1.1-0.8-1.4-1.6-0.4-1.1-1.1-2.4-0.9-4.1 0.1-0.5-1.5 1.1-2.4 0.4-3.9-2.7-7.8-5.8-12.5-8.4-2.5 0-4.3-0.9-5.2-2-0.8-1-0.2-2.3 1-2.4 0.7 0 1.5-0.2 2.1 0.2 0.1-0.4 0.5-0.9 1-0.9M50 14.6l0.2 0.1c1 0.2 1.5 1.6 2.6 1.1 0 0.7 0.1 1.4-0.1 1.9-0.3 0.8-1.2 0.8-1.9 0.8-6.7-0.4-10.6 2.4-14.7 4.8-1.1 0.7-2.3 1.2-3.2 2.1-4.3 4-9 7.7-10.1 15.1l-0.9 8.2c-0.1 0.9-1.1 1.8-0.9 2.9l0.7 4.9c-0.7-0.7-1.1 0.2-0.9 0.6 0.1 0.3 0.5 1.3 1.1 0.4 0.8 1.5 1.6 4.4 2.7 5.7 3.4 4 7.8 7.6 11.4 11.2 0.9-0.2 1.6-0.2 1.8-0.8 0.3 0.6-0.3 1.2-0.8 1.3 1.6 1 3.4 1.9 5.8 2.1 3.1 0.2 6 0.7 8.7 1.4 1.4-0.4 2.8-0.6 4.3-0.7 0.5 0 0.8-0.8 1.4-1l0.1-1c0.6 0.9 0.5-0.3 0.1-0.9 0.7 0.6 0.9 1.1 1.2 1.5 0-0.3 0.8-1.4 0.8-0.1l0.2-1.3c0.3-0.2 0.4 1.1 0.7 0.2 0.3-0.9 0.9-0.2 1.5-0.5-0.2 0.4-0.1 1.2 0.6 0.7l0.8-0.7c0.5 1.2 1.3 0.7 1.7 0.5 4.4-2.8 8.8-6.1 13-9.4l-0.1 1.3 0.5-1.6c0.5 0.5 0.9 0.1 1.1-0.2 0.6-1 1.4-2 2.7-2.9-1.6 4.3-3.5 7.7-5.9 10.5l-1 1.2c0 0.7-0.2 1.6-1 1.7-0.4 0.1-1.2-0.2-1.8 0.4-0.3 0.4 0.7 1.2-0.1 0.6-0.7-0.5-1.4 0-2.2 0.2-0.6 0.2 0.4 0.8 0.6 1.2 0.2 0.4 0.4 0.8 0.3 1.3l-1.1-1.2c-1.3 0.7-2.1 2-3.2 3-0.5 0.4-0.3 1.1-0.3 1.7-0.7 0-1.5-0.2-1.9 0.2-0.3 0.4-0.2 1-0.2 1.6-1-0.1-1.1-1.6-2-1.3-0.9 0.2-1.9 0.3-2.7 0.8 0.6 1.2-1 0.5-0.8 0.7-1.5-0.9-2.8-1.6-4.4-1-3.4-1.1-7.6-0.6-10.7-0.2 0-0.5 0.1-1-0.1-1.1-0.2 0.5-0.8 0.3-0.7 0.3-1.9-1.3-3.8-2.1-5.8-3.2-1.8 0.2-3.5-0.7-4-1.2-1.4-1.3-3-0.6-4.3-0.9-2.8-0.7-3.8-3.6-4.1-5.6-0.2-1-1-1.4-1.3-1.3-1.3-4.2-3.3-8-4.9-11.9-0.4-1-0.3-2-0.3-3.1 0.5 0.2 1 0.1 0.9-0.6-0.5-3.3-1.7-5.8-3-8.2 0.7-3.4 0.8-7.4 2.4-10.4 1.4-2.7 4-4.1 5.8-6.4 0.6-0.8 0.6-1.9 1.2-2.6 2-2 4-4.1 6.2-5.9 1-0.8 2.2 0 3.7-0.3 0.5-1.8 2.5-3.4 4.4-2.9 0.8 0.2 2.4-1.9 2.9-2.1 0.8-0.3 0.4 0.8 0.4 1.5 1.9-1.5 4.5-2.3 6.9-3.2" fill="#009b7d" fill-rule="nonzero" stroke="none" stroke-width="1" stroke-linecap="butt" stroke-linejoin="miter" stroke-miterlimit="10" stroke-dasharray="" stroke-dashoffset="0" font-family="none" font-weight="none" font-size="none" text-anchor="none" style="mix-blend-mode: normal" data-fill-palette-color="tertiary"></path></g><g transform="matrix(1,0,0,1,64,124.02672914130802)"><svg viewBox="0 0 192 111.94654171738395" height="111.94654171738395" width="192"><g><svg viewBox="0 0 192 111.94654171738395" height="111.94654171738395" width="192"><g><svg viewBox="0 0 192 111.94654171738395" height="111.94654171738395" width="192"><g transform="matrix(1,0,0,1,0,59.993983262622855)"><svg viewBox="0 0 192 51.9525584547611" height="51.9525584547611" width="192"><g id="textblocktransform"><svg viewBox="0 0 192 51.9525584547611" height="51.9525584547611" width="192" id="textblock"><g><svg viewBox="0 0 192 51.9525584547611" height="51.9525584547611" width="192"><g transform="matrix(1,0,0,1,0,0)"><svg width="192" viewBox="3.91 -38.38 144.08 38.99" height="51.9525584547611" data-palette-color="#009b7d"><path d="M17.16-11.69L17.16-11.69Q16.53-11.69 16.09-12.01L16.09-12.01Q15.63-12.33 14.99-12.92 14.36-13.5 13.57-14.36L13.57-14.36Q13.28-14.7 13.28-14.97L13.28-14.97Q13.28-15.23 13.57-15.58L13.57-15.58Q15.09-17.29 16.33-18.09L16.33-18.09Q16.63-18.29 17.16-18.29L17.16-18.29Q18.82-18.29 20.03-19.53 21.24-20.78 21.19-23.56L21.19-23.56Q21.17-26.56 19.71-27.76 18.26-28.96 15.75-28.96L15.75-28.96 14.58-28.96Q12.96-28.96 12.38-28.27 11.79-27.59 11.79-25.93L11.79-25.93 11.79-1.29Q11.79-0.56 11.49-0.28 11.18 0 10.45 0L10.45 0 5.25 0Q4.52 0 4.21-0.28 3.91-0.56 3.91-1.29L3.91-1.29 3.91-28.47Q3.91-30.91 4.36-32.34 4.81-33.76 6.12-34.39 7.42-35.01 9.94-35.01L9.94-35.01 15.75-35.01Q22.75-35.01 26.12-32.26 29.49-29.52 29.49-23.85L29.49-23.85Q29.49-19.6 27.72-16.92 25.95-14.23 23.13-12.96 20.31-11.69 17.16-11.69ZM46.51 0.61L46.51 0.61Q42.38 0.61 39.33-0.72 36.28-2.05 34.59-4.86 32.91-7.67 32.91-12.11L32.91-12.11Q32.91-18.77 36.33-22.19 39.74-25.61 45.41-25.61L45.41-25.61Q49.09-25.61 51.65-24.29 54.2-22.97 55.53-20.65 56.86-18.33 56.86-15.36L56.86-15.36Q56.86-12.45 55.37-11.3 53.88-10.16 51.02-10.16L51.02-10.16 40.55-10.16Q40.74-7.64 42.39-6.32 44.04-5 46.87-5L46.87-5Q49.12-5 50.47-5.68 51.83-6.35 52.37-6.74L52.37-6.74Q52.83-7.08 53.42-7.06L53.42-7.06Q53.88-7.06 54.75-6.87 55.61-6.69 56.47-6.2L56.47-6.2Q57.08-5.88 57.08-5.32L57.08-5.32Q57.08-5 56.96-4.42L56.96-4.42Q56.88-4.08 56.71-3.43 56.54-2.78 56.27-2.22L56.27-2.22Q56.13-1.95 55.81-1.71L55.81-1.71Q55.32-1.37 54.23-0.81 53.15-0.24 51.27 0.18 49.39 0.61 46.51 0.61ZM40.5-15.16L40.5-15.16 48.46-15.16Q49.7-15.16 49.7-16.31L49.7-16.31Q49.7-18.04 48.62-19.23 47.53-20.41 45.36-20.41L45.36-20.41Q42.99-20.41 41.88-18.9 40.77-17.38 40.5-15.16ZM75.07-10.4L63.23-10.4Q62.47-10.4 62.47-11.16L62.47-11.16 62.47-15.53Q62.47-16.28 63.23-16.28L63.23-16.28 75.07-16.28Q75.83-16.28 75.83-15.53L75.83-15.53 75.83-11.16Q75.83-10.4 75.07-10.4L75.07-10.4ZM101.43 0L89.3 0Q86.78 0 85.48-0.63 84.17-1.27 83.72-2.71 83.27-4.15 83.27-6.54L83.27-6.54 83.27-31.1Q83.27-31.81 83.51-32.18L83.51-32.18Q84.61-33.79 86.59-35.57L86.59-35.57Q86.96-35.86 87.22-35.86L87.22-35.86Q87.52-35.86 87.83-35.57L87.83-35.57Q88.91-34.64 89.64-33.8 90.37-32.96 90.91-32.18L90.91-32.18Q91.15-31.79 91.15-31.1L91.15-31.1 91.15-9.45Q91.15-7.81 91.74-7.1 92.33-6.4 93.94-6.4L93.94-6.4 101.43-6.42Q102.02-6.42 102.31-6.23L102.31-6.23Q102.95-5.79 103.63-5.18 104.31-4.57 105.07-3.71L105.07-3.71Q105.31-3.39 105.31-3.2L105.31-3.2Q105.31-2.98 105.07-2.71L105.07-2.71Q104.31-1.86 103.63-1.25 102.95-0.63 102.31-0.2L102.31-0.2Q101.97 0 101.43 0L101.43 0ZM107-33.2L107-33.2Q107-33.52 107.19-33.76 107.39-34.01 107.7-34.4L107.7-34.4Q108.39-35.18 109.29-36.05 110.2-36.91 111.12-37.72L111.12-37.72Q111.71-38.18 112-38.18L112-38.18Q112.29-38.18 112.91-37.72L112.91-37.72Q114.88-36.01 116.27-34.4L116.27-34.4Q116.59-34.03 116.8-33.78 117.01-33.52 117.01-33.2L117.01-33.2Q117.01-32.89 116.8-32.64 116.59-32.4 116.25-31.98L116.25-31.98Q115.59-31.23 114.71-30.36 113.83-29.49 112.91-28.71L112.91-28.71Q112.56-28.42 112.37-28.33 112.17-28.25 112-28.25L112-28.25Q111.83-28.25 111.65-28.33 111.46-28.42 111.07-28.71L111.07-28.71Q110.1-29.49 109.24-30.36 108.39-31.23 107.7-32.03L107.7-32.03Q107.39-32.42 107.19-32.65 107-32.89 107-33.2ZM115.83-23.71L115.83-1.29Q115.83-0.56 115.53-0.28 115.22 0 114.49 0L114.49 0 109.46 0Q108.73 0 108.43-0.28 108.12-0.56 108.12-1.29L108.12-1.29 108.12-23.71Q108.12-24.44 108.43-24.72 108.73-25 109.46-25L109.46-25 114.49-25Q115.22-25 115.53-24.72 115.83-24.44 115.83-23.71L115.83-23.71ZM133.95 0.61L133.95 0.61Q130.8 0.61 128.65 0.15 126.5-0.32 125.04-1 123.57-1.68 122.47-2.37L122.47-2.37 122.47-34.33Q122.47-34.91 122.72-35.23L122.72-35.23Q123.74-36.57 125.72-38.13L125.72-38.13Q126.06-38.38 126.33-38.38L126.33-38.38Q126.65-38.38 126.94-38.13L126.94-38.13Q127.99-37.33 128.71-36.62 129.43-35.91 129.94-35.23L129.94-35.23Q130.19-34.91 130.19-34.33L130.19-34.33 130.19-22.49 130.29-22.49Q131.26-23.73 133-24.67 134.73-25.61 137.83-25.61L137.83-25.61Q141.3-25.61 143.54-24.01 145.79-22.41 146.89-19.62 147.99-16.82 147.99-13.21L147.99-13.21Q147.99-9.3 146.69-6.16 145.4-3.03 142.33-1.21 139.27 0.61 133.95 0.61ZM134.26-5.3L134.26-5.3Q137.1-5.3 138.59-7.19 140.08-9.08 140.08-12.6L140.08-12.6Q140.08-16.16 138.74-17.77 137.41-19.38 134.9-19.38L134.9-19.38Q132.87-19.38 131.81-18.55 130.75-17.72 130.19-16.46L130.19-16.46 130.19-6.37Q130.72-5.98 131.71-5.64 132.7-5.3 134.26-5.3Z" opacity="1" transform="matrix(1,0,0,1,0,0)" fill="#009b7d" class="wordmark-text-0" data-fill-palette-color="primary" id="text-0"></path></svg></g></svg></g></svg></g></svg></g><g transform="matrix(1,0,0,1,63.86755241938397,0)"><svg viewBox="0 0 64.26489516123206 52.41285812267029" height="52.41285812267029" width="64.26489516123206"><g><svg xmlns="http://www.w3.org/2000/svg" xmlns:xlink="http://www.w3.org/1999/xlink" version="1.1" x="0" y="0" viewBox="5 13.217735200000002 90.16 73.5322648" enable-background="new 0 0 100 100" xml:space="preserve" height="52.41285812267029" width="64.26489516123206" class="icon-icon-0" data-fill-palette-color="accent" id="icon-0"><g fill="#ffbf5d" data-fill-palette-color="accent"><path fill="#ffbf5d" d="M11.601 66.382V72.745H24.732V66.382C26 66.099 26.971 65.015 26.971 63.661V63.106C26.971 61.752 26 60.67 24.732 60.385V26.515C26 26.23 26.971 25.148 26.971 23.795V23.24C26.971 21.886 26 20.805 24.732 20.52V15.245H11.601V20.52C10.333 20.808 9.364 21.889 9.364 23.24V23.796C9.364 25.147 10.333 26.231 11.601 26.516V60.386C10.333 60.671 9.364 61.755 9.364 63.107V63.662C9.364 65.015 10.333 66.097 11.601 66.382M11.259 23.795V23.24C11.259 22.719 11.684 22.294 12.208 22.294H24.129C24.65 22.294 25.075 22.719 25.075 23.24V23.796A0.946 0.946 0 0 1 24.129 24.742H12.208A0.95 0.95 0 0 1 11.259 23.795M11.259 63.106C11.259 62.582 11.684 62.159 12.208 62.159H24.129C24.65 62.159 25.075 62.582 25.075 63.106V63.661A0.95 0.95 0 0 1 24.129 64.61H12.208A0.95 0.95 0 0 1 11.259 63.661z" data-fill-palette-color="accent"></path><rect x="5" y="75.43" fill="#ffbf5d" width="90.16" height="11.32" data-fill-palette-color="accent"></rect><rect x="58.31" y="25.102" fill="#ffbf5d" width="11.376" height="47.644" data-fill-palette-color="accent"></rect><rect x="39.674" y="13.748" transform="matrix(0.9738 0.2272 -0.2272 0.9738 10.9544 -9.184)" fill="#ffbf5d" width="11.377" height="58.467" data-fill-palette-color="accent"></rect><rect x="72.461" y="19.917" fill="#ffbf5d" width="14.205" height="52.828" data-fill-palette-color="accent"></rect></g></svg></g></svg></g><g></g></svg></g></svg></g></svg></g></svg></g><defs></defs></svg><rect width="320" height="360" fill="none" stroke="none" visibility="hidden"></rect></g></svg></g></svg>